<?xml version="1.0" encoding="UTF-8" standalone="no"?>
<!-- Created with Inkscape (http://www.inkscape.org/) -->

<svg
   width="210mm"
   height="297mm"
   viewBox="0 0 210 297"
   version="1.1"
   id="svg5"
   inkscape:version="1.1.2 (0a00cf5339, 2022-02-04)"
   sodipodi:docname="ohbm.svg"
   xmlns:inkscape="http://www.inkscape.org/namespaces/inkscape"
   xmlns:sodipodi="http://sodipodi.sourceforge.net/DTD/sodipodi-0.dtd"
   xmlns="http://www.w3.org/2000/svg"
   xmlns:svg="http://www.w3.org/2000/svg">
  <sodipodi:namedview
     id="namedview7"
     pagecolor="#ffffff"
     bordercolor="#000000"
     borderopacity="0.25"
     inkscape:pageshadow="2"
     inkscape:pageopacity="0.0"
     inkscape:pagecheckerboard="0"
     inkscape:document-units="mm"
     showgrid="false"
     inkscape:zoom="1.4146745"
     inkscape:cx="417.76394"
     inkscape:cy="561.61328"
     inkscape:window-width="1920"
     inkscape:window-height="966"
     inkscape:window-x="1920"
     inkscape:window-y="27"
     inkscape:window-maximized="1"
     inkscape:current-layer="layer1" />
  <defs
     id="defs2" />
  <g
     inkscape:label="Layer 1"
     inkscape:groupmode="layer"
     id="layer1">
    <path
       style="fill:#000000;stroke-width:0.264583"
       id="path2269"
       d="" />
    <path
       style="fill:#000000;stroke-width:0.264583"
       id="path1749"
       d="" />
    <path
       style="fill:#000000;stroke-width:0.264583"
       id="path1729"
       d="" />
    <path
       style="fill:#000000;stroke-width:0.264583"
       id="path1709"
       d="" />
    <path
       style="fill:#000000;stroke-width:0.264583"
       id="path1689"
       d="" />
    <g
       id="g8917"
       style="stroke-width:1;stroke-miterlimit:4;stroke-dasharray:none">
      <path
         style="fill:none;stroke:#000000;stroke-width:1;stroke-linecap:round;stroke-miterlimit:4;stroke-dasharray:none;stroke-opacity:1;paint-order:stroke fill markers"
         d="m 76.523624,163.24347 c 1.135893,-2.30734 2.096907,-4.7798 3.803174,-6.73536 1.593776,-1.31181 3.996074,-1.35265 5.324534,-3.00796 1.014591,-1.5558 -2.232079,-2.03483 -0.375148,-4.36434 0.380039,-0.47676 -1.422474,-1.04792 -0.634673,-2.02612 0.787801,-0.9782 -1.799977,-1.45661 -0.229509,-2.2266 1.874957,-0.53794 1.188706,-2.27323 -0.08317,-3.00672 -1.05197,-1.00213 -2.128405,-1.98232 -3.282939,-2.86607 -0.05689,-3.56967 -2.688825,-7.47243 -5.26011,-9.29811 -3.354288,-2.67242 -10.288701,-2.24326 -13.685748,-1.12172 l -0.29012,0.14669 -0.285154,0.1554"
         id="path3062"
         sodipodi:nodetypes="csssssscccsc" />
      <path
         style="fill:#f9f9f9;stroke-width:1;paint-order:stroke fill markers;stroke:#000000;stroke-opacity:1;stroke-miterlimit:4;stroke-dasharray:none"
         d="m 57.971922,121.86975 19.930483,44.52901"
         id="path2914" />
      <path
         style="fill:none;stroke:#000000;stroke-width:1;stroke-linecap:round;stroke-miterlimit:4;stroke-dasharray:none;stroke-opacity:1;paint-order:stroke fill markers"
         d="m 55.029019,142.66773 10.288753,-4.29604"
         id="path5346"
         sodipodi:nodetypes="cc" />
      <path
         style="fill:none;stroke:#000000;stroke-width:1;stroke-linecap:round;stroke-miterlimit:4;stroke-dasharray:none;stroke-opacity:1;paint-order:stroke fill markers"
         d="m 55.900989,147.50588 11.376681,-4.69695 v -0.0384 l 0.08048,0.29253"
         id="path5348" />
      <path
         style="fill:none;stroke:#000000;stroke-width:1;stroke-linecap:round;stroke-miterlimit:4;stroke-dasharray:none;stroke-opacity:1;paint-order:stroke fill markers"
         d="m 59.067984,151.81653 10.419451,-4.30229"
         id="path5350"
         sodipodi:nodetypes="cc" />
      <path
         style="fill:none;stroke:#000000;stroke-width:1;stroke-linecap:round;stroke-miterlimit:4;stroke-dasharray:none;stroke-opacity:1;paint-order:stroke fill markers"
         d="m 72.152422,154.46072 c 0,0 -7.14059,-3.88418 -9.540058,-9.84905 -2.421356,-6.01928 -0.461679,-13.08817 -0.461679,-13.08817"
         id="path5352"
         sodipodi:nodetypes="csc" />
      <path
         style="fill:none;stroke:#000000;stroke-width:1;stroke-linecap:round;stroke-miterlimit:4;stroke-dasharray:none;stroke-opacity:1;paint-order:stroke fill markers"
         d="m 72.152422,154.46072 c -5.624139,-0.92624 -10.547778,-2.81626 -12.946648,-8.03461 -2.961787,-6.4429 0.758144,-11.55547 2.682941,-14.67224"
         id="path6393"
         sodipodi:nodetypes="csc" />
      <path
         style="fill:none;stroke:#000000;stroke-width:1;stroke-linecap:round;stroke-miterlimit:4;stroke-dasharray:none;stroke-opacity:1;paint-order:stroke fill markers"
         d="m 72.152422,154.46072 c 0,0 -11.775513,3.39189 -16.251433,-6.95484 -4.250609,-9.82589 5.987724,-15.75201 5.987724,-15.75201"
         id="path7899"
         sodipodi:nodetypes="csc" />
    </g>
  </g>
</svg>
